<?xml version="1.0" encoding="UTF-8" standalone="no"?>
<svg
   xmlns:dc="http://purl.org/dc/elements/1.1/"
   xmlns:cc="http://creativecommons.org/ns#"
   xmlns:rdf="http://www.w3.org/1999/02/22-rdf-syntax-ns#"
   xmlns:svg="http://www.w3.org/2000/svg"
   xmlns="http://www.w3.org/2000/svg"
   width="56.577641mm"
   height="37.632057mm"
   viewBox="0 0 56.577641 37.632057"
   version="1.1"
   id="svg14560">
  <defs
     id="defs14554" />
  <metadata
     id="metadata14557">
    <rdf:RDF>
      <cc:Work
         rdf:about="">
        <dc:format>image/svg+xml</dc:format>
        <dc:type
           rdf:resource="http://purl.org/dc/dcmitype/StillImage" />
        <dc:title></dc:title>
      </cc:Work>
    </rdf:RDF>
  </metadata>
  <g
     transform="translate(-54.894166,-83.274024)"
     id="layer1">
    <path
       style="fill:#3465a4;stroke-width:0.06397348"
       d="m 58.603096,120.78817 c 0,-0.065 0.116546,-0.94638 0.258874,-1.95888 0.142446,-1.01244 0.24583,-1.85391 0.229796,-1.86987 -0.03861,-0.0386 -0.300195,0.0982 -1.26129,0.66095 -0.4425,0.25904 -0.832259,0.47096 -0.866164,0.47096 -0.0339,0 -0.156101,-0.16434 -0.271494,-0.36544 -0.250586,-0.43628 -0.354607,-0.32192 0.993941,-1.09285 0.534017,-0.3053 0.943107,-0.57225 0.909132,-0.59323 -0.0339,-0.0212 -0.880667,-0.3669 -1.881482,-0.76859 -1.000816,-0.40172 -1.819937,-0.74479 -1.820243,-0.76241 -2.35e-4,-0.0188 0.107129,-0.0914 0.238838,-0.16363 0.131615,-0.0725 1.743557,-1.00084 3.582,-2.06316 1.838466,-1.06231 3.367649,-1.93151 3.39821,-1.93151 0.03061,0 0.282466,0.12808 0.559752,0.28447 0.887117,0.50051 1.962993,0.86908 2.819291,0.96578 0.370312,0.0419 0.374503,0.0405 1.075476,-0.37036 0.659582,-0.38653 2.039279,-1.18421 6.941126,-4.01303 4.11112,-2.37251 4.478135,-2.59153 4.478135,-2.67247 0,-0.0454 -0.06475,-0.11113 -0.143858,-0.14621 -0.07911,-0.0349 -2.04978,-0.62323 -4.379177,-1.30725 -2.329374,-0.68403 -4.345838,-1.3001 -4.481008,-1.36906 -0.545861,-0.27846 -0.975741,-0.97261 -0.975741,-1.57557 0,-0.341252 0.187652,-0.854292 0.402592,-1.100546 0.169051,-0.193773 4.048232,-2.833843 4.163789,-2.833843 0.01884,0 -0.182236,0.361694 -0.448786,0.803723 -0.266384,0.442005 -0.470352,0.817685 -0.453259,0.834778 0.01648,0.01648 0.271965,-0.0094 0.566392,-0.06192 0.294427,-0.05086 0.540728,-0.08782 0.547368,-0.0817 0.0071,0.0047 -0.741871,0.514358 -1.663317,1.129323 -2.179488,1.454615 -2.180524,1.458575 -0.513252,1.953955 0.521963,0.15516 2.516013,0.74208 4.431258,1.30445 2.393086,0.70269 3.5731,1.07863 3.772735,1.20205 0.578871,0.35792 0.848623,1.10549 0.61739,1.71099 -0.17117,0.44801 -0.577411,0.74785 -2.570801,1.89724 -1.015836,0.58576 -3.012923,1.7387 -4.437921,2.56211 -1.42502,0.8234 -3.331931,1.92497 -4.237579,2.44787 l -1.646647,0.95076 -0.198011,0.51368 c -0.290566,0.7534 -0.449186,1.56174 -0.496794,2.53145 l -0.04214,0.85866 -1.119551,0.64934 c -3.58506,2.0794 -6.027496,3.4869 -6.050805,3.4869 -0.01413,0 -0.02661,-0.0532 -0.02661,-0.11819 z m 2.079116,-1.67062 c 0.633353,-0.3611 1.281069,-0.73558 1.439407,-0.83223 0.158456,-0.0965 0.806054,-0.47182 1.439406,-0.83372 0.633353,-0.36191 1.288273,-0.74326 1.455393,-0.84745 l 0.303868,-0.18953 v -0.50047 c 0,-0.65548 0.101478,-1.36347 0.287458,-2.00554 0.08264,-0.28536 0.143152,-0.52596 0.134441,-0.5347 -0.0094,-0.009 -0.402262,0.20931 -0.874569,0.48467 -0.472307,0.27528 -1.823115,1.05591 -3.00181,1.73468 -1.178743,0.67879 -2.154672,1.2446 -2.168799,1.25736 -0.02119,0.0188 -0.4441,2.87931 -0.451729,3.05526 -0.0017,0.0306 0.06239,0.0141 0.141504,-0.0382 0.07911,-0.0516 0.662124,-0.38907 1.295478,-0.75015 z m -1.055933,0.17329 c -4.95e-4,-0.0963 0.251128,-1.9407 0.29153,-2.13767 0.02119,-0.10454 0.514217,-0.41863 1.995745,-1.27295 1.082045,-0.62393 2.28073,-1.31819 2.663732,-1.54276 l 0.696429,-0.40834 -0.04002,0.24185 c -0.05156,0.31331 -0.158221,1.14646 -0.21826,1.70626 l -0.04709,0.44081 -1.439407,0.8299 c -0.791668,0.45644 -1.983078,1.14331 -2.647581,1.52638 -0.664503,0.38308 -1.218675,0.6965 -1.231507,0.6965 -0.01177,0 -0.02354,-0.036 -0.02354,-0.08 z m -0.83127,-2.57085 c 0.862043,-0.50341 2.97796,-1.72844 4.702045,-2.72228 1.724085,-0.99383 3.158642,-1.82898 3.187932,-1.85587 0.0292,-0.0271 0.01884,-0.10501 -0.02449,-0.17376 -0.07346,-0.11749 -0.253624,-0.0236 -3.05999,1.59836 -1.640148,0.94772 -3.816905,2.20018 -4.837286,2.78324 -1.020358,0.58306 -1.864766,1.06705 -1.876397,1.07555 -0.01177,0.009 0.01177,0.0777 0.05274,0.15375 0.04968,0.0925 0.109482,0.12478 0.181058,0.0975 0.05886,-0.0235 0.812364,-0.45298 1.674383,-0.95639 z m 1.351019,-1.8123 c 4.139703,-2.38676 4.840348,-2.80086 4.813153,-2.84484 -0.01648,-0.0268 -0.0857,-0.049 -0.153747,-0.049 -0.252729,0 -1.394625,-0.41005 -2.047707,-0.7353 l -0.67531,-0.33631 -1.339859,0.77825 c -0.736903,0.42806 -2.084697,1.20812 -2.995054,1.73345 -1.169019,0.67463 -1.629389,0.97144 -1.567349,1.01045 0.08594,0.0541 2.679767,1.11931 2.742725,1.1264 0.01648,7.6e-4 0.567993,-0.30542 1.223101,-0.68315 z m -2.357344,-0.069 c -0.571077,-0.23427 -1.038723,-0.44045 -1.039217,-0.45804 -5.18e-4,-0.0188 1.200828,-0.72577 2.669642,-1.57375 l 2.670536,-1.54181 0.479795,0.23573 c 0.263889,0.12974 0.724494,0.33126 1.023582,0.44801 0.299065,0.11679 0.563567,0.22956 0.58777,0.25052 0.02402,0.0212 -0.925825,0.5978 -2.111136,1.28177 -1.185312,0.684 -2.361818,1.36774 -2.614453,1.51939 -0.252612,0.15163 -0.497335,0.27317 -0.543766,0.26999 -0.04638,-0.002 -0.551676,-0.19754 -1.122753,-0.43181 z m 13.968094,1.73303 c 0.02355,-0.0968 0.09182,-0.33424 0.153041,-0.52775 0.06122,-0.19354 0.14786,-0.48142 0.192125,-0.63976 0.0445,-0.15846 0.105009,-0.37424 0.134675,-0.47979 0.0299,-0.10572 0.121491,-0.40782 0.204133,-0.67171 0.08241,-0.26389 0.197776,-0.63816 0.256449,-0.83167 0.05863,-0.19354 0.177763,-0.58217 0.264784,-0.86365 0.238438,-0.77123 0.242864,-0.84174 0.06216,-0.98393 -0.196127,-0.15422 -0.1634,-0.25421 0.262666,-0.80648 l 0.3179,-0.41196 0.847658,-7.3e-4 c 0.466185,-7.5e-4 0.847303,0.002 0.84688,0.0141 -5.18e-4,0.009 -0.04309,0.17423 -0.09512,0.36781 -0.122433,0.45611 -0.121491,0.46381 0.04803,0.41507 0.13444,-0.0386 0.22909,-0.0775 0.767675,-0.3147 0.920693,-0.40558 1.166853,-0.48422 1.516233,-0.48422 0.430139,0 0.712887,0.12291 0.905461,0.39327 0.161517,0.22697 0.145036,0.56041 -0.05886,1.17943 -0.16081,0.48806 -0.225794,0.85832 -0.150451,0.85832 0.06145,0 0.34945,-0.11396 0.842382,-0.33323 0.158456,-0.0704 0.388629,-0.17117 0.511792,-0.22344 0.665538,-0.28364 0.647079,-0.26419 0.809114,-0.85069 0.08264,-0.29907 0.180117,-0.65174 0.216847,-0.78369 l 0.06663,-0.23992 h 0.868 c 0.801839,0 0.864468,0.009 0.821311,0.11184 -0.02566,0.0617 -0.06993,0.22909 -0.09865,0.37238 -0.02849,0.14315 -0.0963,0.37352 -0.150215,0.51177 -0.08594,0.22014 -0.421898,1.34325 -0.421898,1.41007 0,0.0798 0.194715,0.009 1.183499,-0.42595 0.140798,-0.0619 0.392491,-0.1714 0.559446,-0.24305 0.185533,-0.0796 0.325106,-0.18765 0.358963,-0.27802 0.167403,-0.44664 0.393056,-1.20598 0.393056,-1.32354 0,-0.13161 0.02637,-0.13562 0.863644,-0.13562 0.475014,0 0.863338,0.0212 0.862961,0.048 -2.59e-4,0.0264 -0.04356,0.18954 -0.09606,0.3624 -0.0525,0.17282 -0.08194,0.32796 -0.06522,0.34446 0.0292,0.0292 0.254283,-0.0454 0.6419,-0.21308 0.105481,-0.0457 0.393433,-0.15963 0.639757,-0.25313 0.246278,-0.0935 0.497806,-0.19683 0.558905,-0.22932 0.176115,-0.0939 0.929193,-0.0704 1.133914,0.0356 0.300548,0.1554 0.450246,0.39784 0.450599,0.72961 2.59e-4,0.26702 -0.125258,0.76958 -0.259557,1.03905 -0.02849,0.0572 -0.07134,0.20837 -0.09536,0.33584 -0.05486,0.29193 0.0071,0.2965 0.536184,0.04 0.218024,-0.10572 0.421827,-0.19189 0.453118,-0.19189 0.03131,0 0.167638,-0.0549 0.302856,-0.12197 0.135382,-0.0671 0.346696,-0.16622 0.469834,-0.22037 0.182943,-0.0803 0.25313,-0.17023 0.383874,-0.49207 0.199894,-0.49191 0.555114,-0.90604 0.910568,-1.06144 0.228149,-0.0996 0.493309,-0.12455 1.614321,-0.15139 l 1.341413,-0.0318 0.109483,-0.28788 c 0.09842,-0.25906 0.359245,-1.11538 0.559988,-1.83924 l 0.07534,-0.2719 h 0.829104 c 0.939151,0 0.895829,-0.0337 0.708908,0.55145 -0.06616,0.20695 -0.169522,0.5633 -0.229797,0.79199 -0.06051,0.22862 -0.132321,0.47342 -0.159869,0.54379 -0.02731,0.0704 -0.09441,0.28628 -0.148567,0.4798 -0.19754,0.70476 -0.444147,1.51117 -0.563166,1.84164 -0.148803,0.41272 -0.157985,0.65334 -0.02519,0.65334 0.29292,0 1.94701,-0.47854 2.174381,-0.62902 0.254681,-0.16858 0.263018,-0.16952 1.786032,-0.20201 l 1.530178,-0.0327 0.0593,-0.1787 c 0.1448,-0.43518 -0.0885,-0.62097 -0.7799,-0.62097 -0.46008,0 -0.88043,0.12949 -0.94207,0.28988 -0.0292,0.076 -0.198482,0.0939 -0.892816,0.0939 -0.471248,0 -0.856818,-0.0245 -0.856818,-0.0544 0,-0.0768 0.336713,-0.52613 0.519114,-0.693 0.08405,-0.0768 0.291745,-0.19918 0.461808,-0.27189 0.286022,-0.12243 0.433482,-0.13232 1.969212,-0.13232 1.79912,0 1.982,0.0285 2.18667,0.34088 0.15587,0.23806 0.13491,0.61649 -0.0782,1.40239 -0.19377,0.71461 -0.18224,0.78223 0.10807,0.62914 0.061,-0.0323 0.21897,-0.1043 0.35098,-0.15987 1.39293,-0.5884 1.43545,-0.61345 1.52457,-0.89813 0.18671,-0.59632 0.66756,-1.10394 1.17829,-1.24364 0.1448,-0.0398 0.80434,-0.0699 1.51862,-0.0704 l 1.26272,-5.2e-4 0.041,-0.25589 c 0.0235,-0.14079 0.0598,-0.25588 0.0829,-0.25588 0.0235,0 0.0443,-0.0504 0.0471,-0.11184 0.005,-0.12949 0.44309,-1.64756 0.50219,-1.74315 0.0235,-0.0377 0.39705,-0.0643 0.90727,-0.0643 0.68367,0 0.85491,0.0165 0.80744,0.08 -0.0332,0.044 -0.0925,0.19519 -0.13161,0.33587 -0.0391,0.14079 -0.16246,0.55815 -0.2738,0.92759 -0.11137,0.36946 -0.24006,0.80127 -0.28595,0.95961 -0.0459,0.15846 -0.17047,0.57576 -0.27658,0.92761 -0.10619,0.35186 -0.21191,0.73298 -0.23498,0.84691 -0.0235,0.11395 -0.0685,0.22367 -0.10077,0.24369 -0.0323,0.0188 -0.0591,0.0897 -0.0591,0.15445 0,0.065 -0.0838,0.37267 -0.18624,0.68397 -0.10242,0.31129 -0.22062,0.71711 -0.26231,0.90181 l -0.0758,0.33589 h -2.13259 c -1.32317,0 -2.19905,-0.0254 -2.30776,-0.0669 -0.37003,-0.14057 -0.58874,-0.52161 -0.51398,-0.89534 0.0447,-0.22344 -0.0617,-0.25103 -0.31873,-0.0824 -0.23144,0.15163 -0.53109,0.32313 -0.79169,0.453 -0.12314,0.0615 -0.23827,0.12809 -0.25588,0.1481 -0.0165,0.0188 -0.20272,0.12785 -0.41119,0.2399 l -0.37921,0.20342 h -2.12797 c -1.349632,0 -2.142454,-0.0235 -2.167505,-0.0638 -0.02119,-0.0353 -0.09159,-0.0638 -0.154924,-0.0638 -0.159163,0 -0.453754,-0.30876 -0.495994,-0.51996 -0.04003,-0.2006 -0.05062,-0.19919 -0.724447,0.0918 -0.123139,0.0534 -0.481419,0.20013 -0.796094,0.3264 l -0.572208,0.22957 h -2.125382 c -1.934128,0 -2.150481,-0.009 -2.404505,-0.11961 -0.322892,-0.13844 -0.435177,-0.33116 -0.435177,-0.747 0,-0.15658 -0.01413,-0.28485 -0.02896,-0.28485 -0.06475,0 -0.408807,0.16999 -0.770689,0.38074 -0.575174,0.33497 -0.747851,0.4304 -0.967782,0.53477 -0.109954,0.0523 -0.219673,0.12667 -0.243688,0.16552 -0.06287,0.10195 -1.827283,0.0975 -1.827283,-0.002 0,-0.0817 0.02355,-0.1594 0.319879,-1.07611 0.306011,-0.94532 0.319879,-0.99352 0.319879,-1.11315 0,-0.0932 -0.03532,-0.10501 -0.2079,-0.068 -0.114192,0.0245 -0.236695,0.065 -0.271895,0.0902 -0.03508,0.0252 -0.380647,0.17117 -0.767675,0.32475 -0.387028,0.15328 -0.727556,0.29876 -0.756657,0.32287 -0.02896,0.0243 -0.0784,0.14104 -0.109012,0.25965 -0.03084,0.11867 -0.123845,0.46042 -0.206958,0.75946 l -0.150686,0.54382 -0.852202,0.0188 -0.852201,0.0188 0.04379,-0.2738 c 0.02402,-0.15069 0.08547,-0.35739 0.13656,-0.45957 0.190947,-0.38301 0.07063,-0.53941 -0.234506,-0.3046 -0.08382,0.0645 -0.24616,0.15798 -0.360493,0.20743 -0.114192,0.0497 -0.2079,0.1083 -0.2079,0.13091 0,0.0235 -0.09347,0.0793 -0.2079,0.12643 -0.114192,0.0471 -0.38731,0.19472 -0.606582,0.32765 -0.346438,0.21025 -0.450058,0.24183 -0.790962,0.24183 -0.684727,0 -1.020616,-0.28934 -1.028857,-0.88627 -0.0017,-0.14598 -0.02614,-0.26526 -0.05345,-0.26526 -0.06757,0 -0.752701,0.37062 -1.872111,1.01278 -0.22132,0.1269 -0.331533,0.13868 -1.295478,0.13868 -1.172692,0 -1.119952,0.0254 -0.953726,-0.46228 0.07016,-0.20578 0.151157,-0.31493 0.271895,-0.36631 0.09465,-0.0403 0.221791,-0.14127 0.282819,-0.22462 0.122197,-0.16693 0.43294,-1.06921 0.43294,-1.25703 0,-0.10971 -0.01648,-0.11183 -0.2079,-0.0285 -0.114192,0.0497 -0.567757,0.23403 -1.007596,0.41026 -0.439816,0.17612 -0.81858,0.35831 -0.841677,0.40476 -0.02355,0.0464 -0.09206,0.27164 -0.153276,0.50033 -0.06122,0.22861 -0.20531,0.71811 -0.320208,1.08755 -0.114898,0.36944 -0.271165,0.88761 -0.347214,1.15152 -0.146213,0.50657 -0.211667,0.71089 -0.328496,1.02359 l -0.07181,0.19189 h -0.825123 -0.825101 z m 22.05719,-3.23535 c 0.271211,-0.28757 0.571383,-1.20761 0.577646,-1.77056 l 0.0047,-0.41583 -0.348439,-0.0188 c -0.492673,-0.0278 -0.620427,0.0212 -0.808784,0.30483 -0.191654,0.28946 -0.53529,1.3991 -0.536961,1.73332 -7.47e-4,0.31352 0.0923,0.38062 0.531922,0.38062 0.346979,0 0.396658,-0.0188 0.580001,-0.21261 z m 7.103422,0.1116 c 0.27924,-0.27921 0.28218,-0.63464 0.005,-0.70401 -0.0859,-0.0212 -0.43356,-0.0292 -0.77243,-0.0165 -0.55632,0.0188 -0.628013,0.037 -0.738368,0.17329 -0.137972,0.17046 -0.16081,0.45665 -0.04544,0.57185 0.123845,0.12385 1.422598,0.10384 1.550418,-0.0242 z m 6.98139,-0.0118 c 0.19895,-0.16646 0.31081,-0.37853 0.49721,-0.94219 0.21332,-0.64489 0.27185,-1.05786 0.17541,-1.23791 -0.0633,-0.11819 -0.12973,-0.1375 -0.4752,-0.1375 -0.35569,0 -0.42037,0.0188 -0.56569,0.17588 -0.22862,0.24503 -0.3057,0.41267 -0.4777,1.03773 -0.14833,0.53906 -0.18624,0.9202 -0.11113,1.11614 0.0567,0.1481 0.77618,0.13915 0.95688,-0.0118 z m -26.632054,-4.94053 0.191183,-0.57579 h 0.827762 c 0.757575,0 0.825101,0.009 0.796589,0.11184 -0.01648,0.0617 -0.08288,0.32068 -0.146449,0.57576 l -0.115369,0.46381 h -0.872614 -0.872615 z m -2.984128,-7.59683 c -0.05298,-0.18035 -0.743354,-3.055634 -0.743354,-3.096366 0,-0.02119 -0.223204,-0.166932 -0.495805,-0.325577 -0.272695,-0.158691 -0.633447,-0.402497 -0.801698,-0.541811 l -0.305892,-0.253318 -1.645306,0.276274 c -0.904894,0.151864 -1.664282,0.276745 -1.687473,0.27731 -0.02355,5.18e-4 0.356207,-0.659017 0.843159,-1.46573 l 0.8854,-1.466765 -0.123845,-0.404475 c -0.06828,-0.222498 -0.158221,-0.6512 -0.20013,-0.952784 l -0.07605,-0.548286 -1.329782,-0.955068 c -0.731394,-0.525307 -1.330301,-0.970561 -1.330889,-0.989467 -4.95e-4,-0.01884 0.71696,-0.217318 1.594542,-0.44064 l 1.595603,-0.40624 0.211431,-0.412057 c 0.116076,-0.226735 0.366662,-0.615906 0.556432,-0.865033 l 0.345096,-0.45293 -0.237708,-1.558552 c -0.130909,-0.8572 -0.228384,-1.584206 -0.216847,-1.615568 0.01177,-0.03134 0.643854,0.316848 1.40529,0.773807 l 1.38443,0.830815 0.433153,-0.133734 c 0.238224,-0.07351 0.691154,-0.168863 1.006489,-0.211855 l 0.573314,-0.07798 0.965051,-1.327635 c 0.530816,-0.730226 0.982851,-1.306363 1.004559,-1.280268 0.02119,0.02616 0.207664,0.755095 0.413375,1.620025 l 0.37389,1.572604 0.324964,0.170228 c 0.178704,0.09364 0.535572,0.328769 0.792986,0.522495 0.257438,0.193773 0.525848,0.352253 0.596482,0.352253 0.07063,0 0.815119,-0.115134 1.65437,-0.255884 0.839252,-0.140798 1.542227,-0.255908 1.562169,-0.255908 0.01884,0 -0.365037,0.660995 -0.855568,1.468885 l -0.891827,1.468837 0.125022,0.370382 c 0.06875,0.203662 0.162223,0.629468 0.207665,0.946145 l 0.08264,0.575763 1.366724,0.988124 c 0.751712,0.543483 1.340495,0.995377 1.308427,1.00423 -0.03202,0.0094 -0.772714,0.19495 -1.645847,0.413351 l -1.587503,0.39727 -0.194714,0.389783 c -0.107129,0.214257 -0.352135,0.600485 -0.54459,0.858111 l -0.349874,0.468328 0.248043,1.626799 c 0.13656,0.894747 0.241192,1.626776 0.232858,1.626776 -0.0094,0 -0.640605,-0.375986 -1.405008,-0.835508 l -1.389845,-0.835461 -0.645337,0.164106 c -0.354914,0.09041 -0.720893,0.164107 -0.813259,0.163636 -0.510685,-7.53e-4 -0.516783,0.0024 -1.537965,1.415391 -0.531404,0.734242 -0.974774,1.335012 -0.985251,1.335012 -0.0094,0 -0.0339,-0.0504 -0.05204,-0.11184 z m 3.159018,-3.728495 c 1.740544,-0.478806 3.092035,-1.793613 3.647525,-3.548472 0.201072,-0.634978 0.249598,-1.93693 0.09771,-2.619304 -0.408807,-1.83743 -1.698587,-3.26617 -3.511931,-3.890341 -0.549652,-0.1893 -0.641664,-0.201543 -1.512843,-0.203426 -0.77415,-7.07e-4 -1.010186,0.02119 -1.426574,0.141503 -1.503047,0.432281 -2.672467,1.428294 -3.34076,2.845427 -0.323458,0.685787 -0.426183,1.138599 -0.460794,2.030779 -0.0259,0.669754 -0.0094,0.893217 0.105951,1.375436 0.492768,2.070429 2.202703,3.668362 4.277817,3.997611 0.538114,0.08547 1.572151,0.02354 2.12371,-0.12926 z M 79.61836,96.872851 c -1.747512,-0.222498 -3.216373,-1.321966 -3.881817,-2.905819 -0.535172,-1.273722 -0.482432,-2.791415 0.139855,-4.023652 0.600014,-1.188231 1.765995,-2.129102 3.070278,-2.477446 0.641806,-0.171406 1.813815,-0.153041 2.428733,0.03791 1.518305,0.471813 2.578641,1.443527 3.154098,2.890444 0.820651,2.063412 -0.03885,4.633743 -1.934576,5.785339 -0.873321,0.530509 -2.068239,0.808784 -2.976547,0.693156 z m 1.682812,-0.820039 0.01884,-0.319855 0.358492,-0.156337 c 0.777376,-0.338997 1.562098,-1.132807 1.88499,-1.906864 0.136324,-0.326777 0.147155,-0.335889 0.400237,-0.336831 0.432634,-7.53e-4 0.425006,0.02119 0.405558,-1.251213 l -0.01648,-1.146817 -0.319876,-0.02119 -0.319855,-0.02119 -0.250283,-0.519043 c -0.339562,-0.7042 -0.971431,-1.342191 -1.654958,-1.670946 l -0.486999,-0.23427 -0.01884,-0.301043 -0.01884,-0.301042 -1.167512,-0.01648 c -0.760471,-0.0094 -1.170314,0.0047 -1.175494,0.04803 -0.0024,0.03602 -0.01648,0.09418 -0.02402,0.129495 -0.0094,0.03532 -0.01884,0.151393 -0.02402,0.258145 -0.0071,0.167638 -0.04897,0.211902 -0.307588,0.322633 -0.782462,0.335418 -1.515009,1.053038 -1.893773,1.855254 l -0.205545,0.435506 -0.319879,0.01884 -0.319854,0.01884 -0.01648,1.111146 c -0.01177,0.765227 0.0047,1.138646 0.0558,1.199509 0.04096,0.04944 0.191183,0.08853 0.340174,0.08853 h 0.266809 l 0.211667,0.443394 c 0.369276,0.773256 1.094759,1.485224 1.844754,1.810448 0.300643,0.130202 0.335701,0.166461 0.343871,0.3531 0.0047,0.114192 0.01648,0.236695 0.02519,0.271871 0.0094,0.03532 0.01884,0.09324 0.02402,0.129496 0.0047,0.04262 0.415046,0.05933 1.175517,0.04803 l 1.167545,-0.01649 z m -2.866287,-1.249825 c 0,-0.03767 0.09724,-0.362047 0.215905,-0.720774 0.347473,-1.049224 0.405393,-1.32538 0.291366,-1.389186 -0.05251,-0.02943 -0.195421,-0.141975 -0.317453,-0.250045 -0.121962,-0.10807 -0.337089,-0.274885 -0.477815,-0.37057 -0.140798,-0.09559 -0.363155,-0.267704 -0.494252,-0.382249 l -0.238342,-0.208371 1.033494,-0.01883 1.033472,-0.01648 0.04685,-0.159868 c 0.316344,-1.082139 0.51492,-1.697716 0.563234,-1.74603 0.0525,-0.05274 0.191654,0.346602 0.463433,1.330206 0.03885,0.140798 0.09112,0.32786 0.116311,0.415824 l 0.04544,0.159868 1.050354,0.03179 1.05033,0.03178 -0.239897,0.150215 c -0.131851,0.08264 -0.239898,0.169993 -0.239898,0.194244 0,0.02402 -0.08241,0.09253 -0.182942,0.151864 -0.100772,0.05933 -0.294968,0.208841 -0.43181,0.332216 -0.136795,0.123139 -0.279947,0.224616 -0.317972,0.225558 -0.03814,6.83e-4 -0.108541,0.07464 -0.156337,0.164107 -0.07817,0.146213 -0.06239,0.23872 0.15516,0.911604 0.133263,0.411939 0.268339,0.815072 0.300195,0.895901 0.03179,0.08099 0.05557,0.195892 0.05274,0.25586 -0.0024,0.06687 -0.01883,0.07817 -0.03744,0.02896 -0.01884,-0.04403 -0.07063,-0.08005 -0.117488,-0.08005 -0.04685,0 -0.09488,-0.02119 -0.106658,-0.04827 -0.01177,-0.02637 -0.222733,-0.204368 -0.469152,-0.395574 -0.246277,-0.191184 -0.457403,-0.370971 -0.469105,-0.399696 -0.01177,-0.02849 -0.04968,-0.05203 -0.08452,-0.05203 -0.03485,0 -0.106422,-0.04309 -0.159163,-0.09583 -0.117488,-0.117489 -0.304857,-0.123846 -0.418107,-0.01413 -0.04638,0.04521 -0.185297,0.151628 -0.308459,0.236836 -0.123139,0.08523 -0.238296,0.17117 -0.255908,0.191183 -0.127848,0.145742 -0.895616,0.693534 -0.895616,0.639051 z"
       id="path2063" />
  </g>
</svg>
